<svg version="1" xmlns="http://www.w3.org/2000/svg" width="533.333" height="533.333" viewBox="0 0 400.000000 400.000000"><path d="M132 1c0 .5-.7 1-1.5 1-.9 0-1.8.6-2.1 1.4-.3.8-1.7 1.7-3 2-1.4.4-2.2 1.1-1.8 1.7.6 1.1-4.4 5.9-6.2 5.9-.7 0-1.5 1.1-1.8 2.5-.4 1.4-1.3 2.5-2 2.5-.8 0-1.7 1.3-2.1 3-.5 2.1-1.3 3-2.6 3-1.2 0-2.1.9-2.5 2.5-.3 1.4-1.1 2.5-1.8 2.5-.6 0-1.8 2-2.5 4.5-1 3.3-1.8 4.5-3.2 4.5-1.4 0-1.9.7-1.9 3 0 1.8-.5 3-1.3 3-1.3 0-3.7 7.9-3.7 12 0 1.4-1 2.1-3.4 2.6-2.5.4-3.6 1.2-3.8 2.8-.2 1.3-1.1 2.2-2.5 2.4-1.5.2-2.3 1-2.3 2.4 0 1.1-.8 2.2-1.9 2.5-1.1.3-2.1 1.5-2.3 2.7-.2 1.3-1.1 2.2-2.5 2.4-1.3.2-2.3.9-2.3 1.5 0 1.4-7.7 1.1-9.5-.3-.5-.4-4.1-.8-8-.9C45.3 73.9 39 72.6 38 71c-.6-.9-.9-.9-1.4-.1-.5.8-1.6.6-3.7-.6-3.1-1.8-3.9-4.3-1.4-4.3.8 0 1.5-.4 1.5-1 0-.5-.6-.7-1.4-.4-2 .8-3-1.4-1.6-3.1 1-1.2.9-1.5-.4-1.5-.9 0-1.6.7-1.6 1.7 0 1.4-.2 1.4-2-.2-2.5-2.2-2.6-.9-.3 1.9 1 1.2 1.1 1.5.3.8-2.1-1.8-3.5-1.5-1.9.5 1 1.2.2 1-2.6-.7-2.2-1.3-4.1-2.8-4.3-3.2-.2-.4-1-.8-1.8-.8s-1.4-.5-1.4-1.1c0-.5-.4-.7-1-.4-.5.3-1 .2-1-.4 0-.5.4-1.3 1-1.6.5-.3 1-1.1 1-1.6 0-.6-.4-.7-1-.4-.5.3-1 0-1-.7-.1-.7-.7-.2-1.5 1.2S9.1 56.9 9 56.2c0-.7-.4-1-1-.7-.5.3-1 .2-1-.2 0-.5-1.6-.7-3.5-.5l-3.5.4V400h400V0H266c-88.7 0-134 .3-134 1zM42.7 78.2c-.3.8-.6.5-.6-.6-.1-1.1.2-1.7.5-1.3.3.3.4 1.2.1 1.9zm5.6.3c-.7 2.1-1.3 1.9-1.3-.6 0-1.1.4-1.8 1-1.4.5.3.7 1.2.3 2zm4.7.2c0 1-.4 1.4-.8.8-.4-.6-1.1-1.3-1.6-1.8-.5-.4-.2-.7.7-.7 1 0 1.7.8 1.7 1.7zm9 .9c0 1.4-.3 1.4-1.5.4-.8-.7-1.5-1.4-1.5-1.6 0-.2.7-.4 1.5-.4s1.5.7 1.5 1.6zm8 .4c0 1.3-4 1.3-6 0-1.1-.7-.5-1 2.3-1 2 0 3.7.4 3.7 1zm77 22.5c0 .8-.7 1.5-1.5 1.5s-1.5-.7-1.5-1.5.7-1.5 1.5-1.5 1.5.7 1.5 1.5zm17 0c0 .8-.7 1.5-1.5 1.5s-1.5-.7-1.5-1.5.7-1.5 1.5-1.5 1.5.7 1.5 1.5zm91 0c0 .8-.7 1.5-1.5 1.5s-1.5-.7-1.5-1.5.7-1.5 1.5-1.5 1.5.7 1.5 1.5zm17 .5c0 1.3-.7 2-2 2-1.9 0-2.7-2-1.3-3.3 1.3-1.4 3.3-.6 3.3 1.3zm-131 3c0 1.3-.7 2-2 2s-2-.7-2-2 .7-2 2-2 2 .7 2 2zm107 0c0 1.1-.7 2-1.5 2s-1.5-.9-1.5-2 .7-2 1.5-2 1.5.9 1.5 2zm-90 7c0 1.3-.7 2-2 2s-2-.7-2-2 .7-2 2-2 2 .7 2 2zm107 .5c0 .8-.9 1.5-2 1.5s-2-.7-2-1.5.9-1.5 2-1.5 2 .7 2 1.5zM161 127c0 1.1-.7 2-1.5 2s-1.5-.9-1.5-2 .7-2 1.5-2 1.5.9 1.5 2zm107 0c0 1.3-.7 2-2 2s-2-.7-2-2 .7-2 2-2 2 .7 2 2zM98 144c0 1.1-.7 2-1.5 2s-1.5-.9-1.5-2 .7-2 1.5-2 1.5.9 1.5 2zm231 3.5c0 .8-.7 1.5-1.5 1.5s-1.5-.7-1.5-1.5.7-1.5 1.5-1.5 1.5.7 1.5 1.5zm-211 3.1c0 .9-.5 1.4-1.2 1.2-1.8-.6-2.1-2.8-.4-2.8.9 0 1.6.7 1.6 1.6zm195-.1c0 .8-.9 1.5-2 1.5s-2-.7-2-1.5.9-1.5 2-1.5 2 .7 2 1.5zm-112 7c0 .8-.7 1.5-1.5 1.5s-1.5-.7-1.5-1.5.7-1.5 1.5-1.5 1.5.7 1.5 1.5zm16.8-.3c-.7 1.9-3.8 2.2-3.8.4 0-1 .9-1.6 2.1-1.6 1.2 0 1.9.5 1.7 1.2zm64.9 1c-.3.8-.6.5-.6-.6-.1-1.1.2-1.7.5-1.3.3.3.4 1.2.1 1.9zm26.3-.7c0 1-1.1 1.5-3.5 1.5-2.8 0-3.5.4-3.5 2s-.7 2-3 2-3-.4-3-2 .7-2 3-2c2 0 3-.5 3-1.5s1.1-1.5 3.5-1.5 3.5.5 3.5 1.5zm16 0c0 1-1 1.5-3 1.5s-3-.5-3-1.5 1-1.5 3-1.5 3 .5 3 1.5zM194 161c0 1.1-.7 2-1.5 2s-1.5-.9-1.5-2 .7-2 1.5-2 1.5.9 1.5 2zm86-.5c0 .8-.7 1.5-1.5 1.5s-1.5-.7-1.5-1.5.7-1.5 1.5-1.5 1.5.7 1.5 1.5zm1.2 8.1c-.3 2.2-.8 3.2-1.4 2.6-1-1-.1-6.2 1.1-6.2.4 0 .5 1.6.3 3.6zm-70.2-1.1c0 .8-.7 1.5-1.5 1.5s-1.5-.7-1.5-1.5.7-1.5 1.5-1.5 1.5.7 1.5 1.5zm81 0c0 .8-.7 1.5-1.5 1.5s-1.5-.7-1.5-1.5.7-1.5 1.5-1.5 1.5.7 1.5 1.5zm26 0c0 1-1 1.5-2.9 1.5-1.6 0-3.1.6-3.5 1.5-.3.8-1.2 1.5-2.1 1.5-.8 0-1.5-.7-1.5-1.5s.9-1.5 2-1.5 2-.7 2-1.5c0-1 1-1.5 3-1.5s3 .5 3 1.5zm-196 7c0 .8-.7 1.5-1.5 1.5s-1.5-.7-1.5-1.5.7-1.5 1.5-1.5 1.5.7 1.5 1.5zm202 3c0 .8-.7 1.5-1.5 1.5s-1.5.7-1.5 1.5c0 1.1-1.2 1.5-5 1.5s-5-.4-5-1.5 1.2-1.5 5-1.5 5-.4 5-1.5c0-.8.7-1.5 1.5-1.5s1.5.7 1.5 1.5zm-41 2.4c0 1.8-2.6 4.8-3.4 4-.2-.2-.2-1.6.1-3.2.6-3 3.3-3.7 3.3-.8zm-69 1.1c0 1.1-.7 2-1.5 2s-1.5-.9-1.5-2 .7-2 1.5-2 1.5.9 1.5 2zm62.7 1.2c-.3.8-.6.5-.6-.6-.1-1.1.2-1.7.5-1.3.3.3.4 1.2.1 1.9zM298 184c0 1.1-.7 2-1.5 2s-1.5-.9-1.5-2 .7-2 1.5-2 1.5.9 1.5 2zm-117 5c0 .5-1.5.9-3.2.9l-3.3-.1 3-.8c1.7-.4 3.1-.8 3.3-.9.1 0 .2.3.2.9zm19.1 5.2l1 2.3-.5-2.3c-.3-1.4.1-2.2 1-2.2 1.8 0 .8 8-1.2 9.6-.8.6-1.4 1.6-1.4 2.2 0 .6-.4 1.4-1 1.7-.6.4-1-2-1-6.4 0-7.2 1.2-9.1 3.1-4.9zm76.6 3c-.3.8-.6.5-.6-.6-.1-1.1.2-1.7.5-1.3.3.3.4 1.2.1 1.9zm6 3c-.3.8-.6.5-.6-.6-.1-1.1.2-1.7.5-1.3.3.3.4 1.2.1 1.9zm43.3-.2c0 1.1-.7 2-1.5 2s-1.5-.9-1.5-2 .7-2 1.5-2 1.5.9 1.5 2zm-47.3 1.2c-.3.8-.6.5-.6-.6-.1-1.1.2-1.7.5-1.3.3.3.4 1.2.1 1.9zm31.3 2.3c0 .8-.7 1.5-1.5 1.5s-1.5-.7-1.5-1.5.7-1.5 1.5-1.5 1.5.7 1.5 1.5zm-109.1 5.8c-1.1 4.4-3.9 7.3-3.9 4.1 0-.8.7-1.7 1.5-2 .8-.4 1.5-1.8 1.5-3.3 0-2.6.9-4.5 1.7-3.7.2.2-.1 2.4-.8 4.9zm76.6 1.5l-.7 2.7-1-2.7c-.7-2-.6-3.1.4-4.2 1.1-1.2 1.3-1.2 1.6.1.2.8.1 2.7-.3 4.1zm3.2-1.6c-.3.7-.5.2-.5-1.2s.2-1.9.5-1.3c.2.7.2 1.9 0 2.5zm25.3.3c0 1-1 1.5-3 1.5-2.3 0-3 .4-3 2s-.7 2-3.5 2-3.5-.4-3.5-2 .7-2 3.5-2c2.4 0 3.5-.5 3.5-1.5s1-1.5 3-1.5 3 .5 3 1.5zm16 0c0 1-1 1.5-3 1.5s-3-.5-3-1.5 1-1.5 3-1.5 3 .5 3 1.5zm-47.3 4.7c-.3.8-.6.5-.6-.6-.1-1.1.2-1.7.5-1.3.3.3.4 1.2.1 1.9zm-68.9-.5c-1 .2-2.6.2-3.5 0-1-.3-.2-.5 1.7-.5s2.7.2 1.8.5zm73.2 4.5c0 2.3-.3 2.9-1.1 2.1-.6-.6-.8-2-.4-3.2.9-3 1.5-2.6 1.5 1.1zm11 1.3c0 .8-.7 1.5-1.5 1.5s-1.5-.7-1.5-1.5.7-1.5 1.5-1.5 1.5.7 1.5 1.5zm25 0c0 1-1 1.5-3 1.5s-3 .5-3 1.5c0 .8-.7 1.5-1.5 1.5s-1.5-.7-1.5-1.5.7-1.5 1.5-1.5 1.5-.7 1.5-1.5c0-1 1-1.5 3-1.5s3 .5 3 1.5zm-39.3 1.7c-.3.8-.6.5-.6-.6-.1-1.1.2-1.7.5-1.3.3.3.4 1.2.1 1.9zm-69.2 7.6c-1 5.6-1.7 2.9-.9-3.5.6-4.2.9-5 1.2-2.9.2 1.6.1 4.5-.3 6.4zm-28.8-4.6c-.3.8-.6.5-.6-.6-.1-1.1.2-1.7.5-1.3.3.3.4 1.2.1 1.9zm97 5c-.3.8-.6.5-.6-.6-.1-1.1.2-1.7.5-1.3.3.3.4 1.2.1 1.9zm7.3 1.4c0 1-4 2.8-4.6 2.1-.1-.1 0-1.4.3-2.9.4-2.4.7-2.5 2.4-1.5 1 .6 1.9 1.7 1.9 2.3zm33 .5c0 1.5-3.3 2.4-3.8 1-.3-.9-.7-.9-1.8 0s-1.4.8-1.4-.4c0-1.1 1-1.5 3.5-1.5 1.9 0 3.5.4 3.5.9zm-19.6 4.4c-.4.8-1.2 1.5-2 1.5s-1.4-.7-1.4-1.5.9-1.5 2-1.5c1.3 0 1.8.5 1.4 1.5zm-89.7 6.2c-.2 1.6-.4.5-.4-2.2 0-2.8.2-4 .4-2.8.2 1.3.2 3.5 0 5zm-25.7.5c0 .5-.4.8-1 .8-.5 0-1-1-1-2.3 0-1.8.2-1.9 1-.7.5.8 1 1.8 1 2.2zm26.7 6c-.3.8-.6.5-.6-.6-.1-1.1.2-1.7.5-1.3.3.3.4 1.2.1 1.9zm74.3.9c0 1.1-.4 1.8-1 1.4-.5-.3-.7-1.2-.3-2 .7-2.1 1.3-1.9 1.3.6zm-94.3 8.6c-.3 1-.5.4-.5-1.2 0-1.7.2-2.4.5-1.8.2.7.2 2.1 0 3zm12 0c-.3 1-.5.4-.5-1.2 0-1.7.2-2.4.5-1.8.2.7.2 2.1 0 3zm80-.5c-.3.8-.6.5-.6-.6-.1-1.1.2-1.7.5-1.3.3.3.4 1.2.1 1.9zm-92 7c-.3.8-.6.5-.6-.6-.1-1.1.2-1.7.5-1.3.3.3.4 1.2.1 1.9zm12 0c-.3.8-.6.5-.6-.6-.1-1.1.2-1.7.5-1.3.3.3.4 1.2.1 1.9zm79.3-.1c0 .5-.4.9-1 .9-.5 0-1-.7-1-1.6 0-.8.5-1.2 1-.9.6.3 1 1 1 1.6zm-152.4 62.3c5.6 4.7 2 14.6-5.2 14.6-1.5 0-3.8-1.3-5.6-3-2.5-2.6-2.9-3.6-2.4-6.2 1.4-7.2 8-9.9 13.2-5.4zM288 329c9.1 2.6 18.6 11.9 21.1 20.7 1.8 6.5.8 17.9-2.1 23.8-5.8 11.6-16.3 17.7-30.5 17.7-10.4 0-17.8-2.7-23.9-8.7-6.5-6.6-9-12.4-9.4-22.2-.4-7.1-.1-8.9 2.1-13.6 2.7-6 8.7-12.6 13.9-15.3 7.6-4.1 19.5-5.1 28.8-2.4zm65.2.6c2.7.9 5 2 5.3 2.5.5.8-3.6 10.7-5.1 12.1-.3.4-2-.2-3.7-1.3-4.6-2.7-10.2-2.5-12.2.5-.8 1.3-1.3 3-.9 3.9.6 1.5 6.2 4.7 8.3 4.7 1.9 0 10.5 4.7 12.3 6.7 7.4 8.2 5.4 22.6-4 29-8.4 5.6-25.8 4.8-34.1-1.6l-2.4-1.8 3.5-6.1 3.4-6.1 3.9 2.6c7.3 5 17.5 3.8 17.5-2.1 0-3.2-2.7-5.3-9.8-7.7-3.4-1.1-7.6-3-9.3-4.2-12.4-8.5-7.2-28.8 8.3-32.8 4.4-1.1 13.2-.3 19 1.7zm-297.4 1.6c4 11.3 10.8 28.8 11.2 28.8.3 0 3.1-6.9 6.1-15.3l5.6-15.2 8.2-.3c4.4-.2 8.1.1 8.1.5s2.3 13.8 5 29.8c2.8 16 5 29.3 5 29.7 0 .5-3.5.8-7.9.8h-7.8l-1.7-10.9c-.9-6-1.9-13.2-2.3-16-.3-2.9-.9-5.4-1.3-5.6-.4-.2-3.7 7-7.5 16-6.8 16.5-6.8 16.5-10 16.5h-3.2L57 373.9c-3.4-8.8-6.6-15.7-7-15.2-.7.7-1.6 6.3-4.7 27.5l-.6 3.8h-7.8c-5.7 0-7.9-.4-7.9-1.3 0-.6 1.3-8.9 2.9-18.2 1.6-9.4 3.7-21.7 4.6-27.5 2.3-15.2 1.4-14 10.6-14 7.3 0 8 .2 8.7 2.2zm165.5 16.9c7.1 2 12.5 9.3 13.4 18.5l.6 5.3-15.5.3-15.4.3.8 3.1c1.3 5.2 8.4 7.1 13.1 3.4 1.9-1.5 4-2 9.1-2 7.5 0 8 .7 4.3 6.1-6 9.2-24.4 11-34.3 3.4-8.5-6.5-10.3-21-3.8-30.8 4.8-7.2 17-10.6 27.7-7.6zm-95.5.5c2.2.6 2.2.7 2.2 21V390h-15v-20.3c0-11.2.3-20.7.7-21 .8-.9 9-.9 12.1-.1zm24.8.4c1.7 0 2.4.6 2.4 2 0 1.8.2 1.8 3.6-.5 4.7-3.2 13.3-3.5 18.1-.5 6.2 3.7 6.8 5.7 7.1 23.7l.4 16.3H167v-12.9c0-15-1-17.5-7.1-17.3-6 .2-6.9 2.5-6.9 17.3V390h-15v-20.3c0-11.2.3-20.7.8-21.1.4-.4 2.7-.5 5.1-.2 2.4.3 5.4.6 6.7.6z"/><path d="M268.8 345c-11.2 6.1-11.9 20.7-1.5 28.4 4 3 14.4 3 18.4 0 9.9-7.3 9.9-20.5.1-27.7-4-3-12.3-3.3-17-.7zM207 359.2c-1.1 1.2-2 2.5-2 3 0 .4 3.6.8 8 .8s8-.4 8-.8c0-.5-1-1.8-2.3-3-3.1-3-8.9-3-11.7 0z"/></svg>